<?xml version="1.0" encoding="utf-8" ?>
<svg baseProfile="tiny" height="100%" version="1.2" width="100%" xmlns="http://www.w3.org/2000/svg" xmlns:ev="http://www.w3.org/2001/xml-events" xmlns:xlink="http://www.w3.org/1999/xlink"><defs /><polygon fill="white" points="320,512 320,515 321,515 320,514 322,512 323,513 323,517 324,517 325,516 326,516 327,515 327,512" /><polygon fill="white" points="344,511 345,512 345,511" /><polygon fill="white" points="347,495 348,496 349,495 350,495 349,495 348,496" /><polygon fill="white" points="339,483 339,484 340,485 339,486 338,486 337,487 338,486 339,486 340,487 343,487 342,487 341,486 341,485 340,485 339,484" /><polygon fill="white" points="324,477 324,478 325,479 327,479 327,477 325,479 324,478" /><polygon fill="white" points="295,398 294,399 295,400 294,399" /><polygon fill="white" points="211,398 211,599 212,600 266,600 266,400 267,399 266,398" /><polygon fill="white" points="162,398 161,399 159,399 158,400 156,400 155,401 153,401 151,403 150,403 147,406 146,406 144,408 144,409 141,412 141,413 140,414 140,415 139,416 139,417 138,418 138,419 137,420 137,423 136,424 136,440 137,441 137,443 138,444 138,445 139,446 139,448 141,450 141,451 144,454 144,455 147,458 148,458 151,461 152,461 153,462 155,462 157,464 158,464 159,465 160,464 161,464 163,466 162,467 158,467 157,468 155,468 154,469 153,469 152,470 151,470 149,472 148,472 141,479 141,480 140,481 140,482 138,484 138,486 137,487 137,489 136,490 136,495 135,496 135,503 136,504 136,508 137,509 137,511 138,512 138,513 139,514 139,515 141,517 141,518 144,521 144,522 147,525 148,525 151,528 152,528 153,529 154,529 155,530 157,530 158,531 160,531 161,532 160,533 159,533 158,534 157,534 156,535 154,535 153,536 152,536 150,538 149,538 141,546 141,547 139,549 139,550 138,551 138,553 137,554 137,555 136,556 136,561 135,562 135,568 136,569 136,576 137,577 137,579 138,580 138,581 139,582 139,583 140,584 140,585 143,588 143,589 148,594 149,594 151,596 152,596 153,597 154,597 155,598 156,598 157,599 158,599 159,600 161,600 162,601 167,601 168,602 174,602 175,601 179,601 180,600 183,600 184,599 186,599 187,598 188,598 190,596 191,596 192,595 193,595 200,588 200,587 202,585 202,584 203,583 203,582 204,581 204,579 205,578 205,577 206,576 206,570 207,569 207,565 206,564 206,558 205,557 205,555 204,554 204,553 203,552 203,550 202,549 202,548 198,544 198,543 195,540 194,540 191,537 190,537 189,536 188,536 187,535 186,535 185,534 183,534 181,532 182,531 185,531 186,530 187,530 188,529 189,529 190,528 191,528 193,526 194,526 199,521 199,520 202,517 202,516 203,515 203,514 204,513 204,511 205,510 205,508 206,507 206,492 205,491 205,488 204,487 204,486 203,485 203,484 202,483 202,482 200,480 200,479 192,471 191,471 189,469 188,469 187,468 185,468 184,467 181,467 180,466 180,465 181,464 184,464 185,463 186,463 187,462 188,462 189,461 190,461 192,459 193,459 196,456 197,456 197,455 202,450 202,449 203,448 203,447 204,446 204,444 205,443 205,441 206,440 206,434 207,433 207,430 206,429 206,425 205,424 205,422 204,421 204,419 203,418 203,417 202,416 202,415 200,413 200,412 192,404 191,404 189,402 188,402 187,401 186,401 185,400 184,400 183,399 181,399 180,398" /><polygon fill="white" points="74,398 74,599 75,600 131,600 131,399 132,398" /><polygon fill="white" points="0,0 0,391 1,391 2,392 1,393 1,394 1,393 2,392 3,392 5,394 4,393 4,392 5,391 7,393 7,394 9,392 10,392 11,391 12,392 13,392 15,394 14,393 15,392 15,391 14,391 13,390 13,389 14,388 15,389 16,389 17,390 17,391 19,389 21,391 20,390 21,389 21,388 22,387 23,388 23,389 23,388 24,387 25,388 24,387 26,385 27,386 28,385 30,385 32,383 33,383 34,382 35,382 35,381 36,380 37,381 37,382 40,379 41,380 42,379 43,379 43,377 44,376 45,377 46,377 47,376 50,376 49,375 51,373 53,373 54,372 57,372 58,371 59,372 60,371 61,372 60,371 61,370 62,370 63,369 63,368 64,367 65,368 65,369 66,368 65,368 64,367 64,366 65,365 66,366 68,366 69,367 68,366 67,366 66,365 67,364 70,364 71,365 71,363 73,361 74,361 75,362 76,362 77,361 78,361 79,360 83,360 83,359 84,358 85,359 85,360 85,358 86,357 88,357 89,356 90,357 91,357 92,356 93,357 94,356 95,356 95,355 96,354 97,355 98,354 101,354 103,352 104,352 105,353 107,351 108,352 108,353 110,351 111,352 110,351 112,349 113,349 114,350 113,351 115,349 115,348 116,347 117,348 117,349 118,348 119,348 120,349 122,349 123,350 122,349 123,348 124,348 125,349 125,348 126,347 127,348 127,347 128,346 129,346 130,347 129,348 129,349 129,348 130,347 131,347 132,346 134,346 135,347 134,348 135,348 135,347 136,346 137,347 137,348 137,347 139,345 140,346 141,346 142,347 141,348 142,347 144,347 144,346 145,345 147,347 148,347 149,346 150,346 151,347 154,347 155,346 156,346 157,347 159,347 160,346 161,346 162,345 164,345 165,346 169,346 170,347 171,347 171,346 172,345 173,346 177,346 178,345 180,347 181,346 183,348 183,346 184,345 185,346 186,345 187,346 188,346 189,347 189,349 189,347 190,346 191,347 191,348 191,347 192,346 194,346 195,347 195,348 195,345 196,344 197,345 197,346 198,347 198,348 199,348 200,347 201,348 202,348 203,347 205,349 206,348 207,349 207,350 208,349 210,349 211,350 212,350 214,348 215,349 215,350 217,352 216,353 217,352 217,351 218,350 221,353 223,353 225,355 226,354 227,354 229,356 229,355 230,354 232,356 233,356 234,357 236,357 237,358 237,359 237,357 238,356 239,357 239,358 240,359 243,359 244,360 245,360 246,361 247,361 248,360 249,361 249,362 250,361 251,361 252,362 252,363 254,363 256,365 257,364 258,365 259,364 260,365 260,367 261,366 262,367 263,367 264,368 264,369 265,370 266,369 267,370 268,370 269,371 268,372 267,372 268,373 269,373 270,372 271,372 272,373 272,375 271,376 272,375 273,376 274,376 275,377 277,377 278,378 278,379 280,381 280,382 281,383 281,384 282,385 283,385 285,387 285,388 287,388 288,389 288,392 289,392 291,394 291,395 292,394 293,395 293,396 292,397 293,397 294,396 298,396 299,397 297,399 298,400 297,401 298,400 301,403 302,402 304,404 303,405 304,404 305,404 307,406 307,408 308,409 308,410 310,410 311,409 312,410 314,410 315,411 317,411 318,412 319,411 320,412 320,413 319,414 320,413 322,415 321,416 303,416 302,417 303,418 302,419 303,420 303,479 321,479 321,478 322,477 321,476 321,463 322,462 322,456 321,455 321,440 322,439 322,436 323,435 323,434 326,431 327,431 328,432 325,435 325,436 327,436 328,437 326,439 325,438 324,438 324,443 325,442 326,443 327,443 326,443 324,441 326,439 327,440 327,441 327,440 328,439 333,439 334,440 334,442 334,441 335,440 335,432 336,431 338,431 339,432 339,433 340,434 340,435 341,436 341,463 342,464 342,465 341,466 341,472 342,473 341,474 342,475 341,476 341,479 360,479 360,440 361,439 361,436 362,435 362,434 364,432 365,433 364,432 365,431 366,431 367,430 369,430 370,429 371,430 372,429 373,430 375,430 376,431 377,431 378,432 378,433 377,434 376,433 375,434 374,433 374,432 368,432 367,433 367,434 366,435 364,435 364,436 363,437 363,442 362,443 363,444 363,447 362,448 364,450 363,451 362,451 363,451 364,452 365,451 366,452 366,455 365,456 363,456 363,461 363,459 364,458 366,460 365,461 367,461 368,462 367,463 366,463 366,464 364,466 363,465 363,463 363,477 362,478 362,479 367,479 368,480 367,481 366,481 364,483 363,483 362,482 363,481 361,481 360,482 359,481 360,482 360,483 358,485 357,485 357,486 356,487 355,486 354,487 353,487 355,487 356,488 355,489 355,490 354,491 354,492 355,493 353,495 352,494 352,493 352,494 355,497 354,498 353,498 352,497 353,498 352,499 351,499 352,499 353,500 352,501 351,501 353,503 352,504 353,503 354,503 355,504 354,505 355,506 354,507 353,507 354,507 355,508 354,509 353,509 354,510 353,511 352,511 351,510 350,510 349,509 350,508 350,507 350,508 349,509 348,509 347,508 347,507 347,509 349,509 350,510 349,511 348,511 349,512 347,514 345,514 347,514 348,515 347,516 343,516 342,515 334,515 333,516 331,516 330,517 328,517 327,518 326,518 324,520 323,520 322,521 321,520 321,517 303,517 303,580 322,580 323,581 322,582 304,582 305,583 305,584 304,585 303,584 302,585 301,584 303,586 302,587 301,587 301,588 300,589 299,589 299,591 298,592 297,592 296,591 295,592 294,592 294,593 293,594 293,595 292,596 290,596 290,598 291,599 290,600 287,600 287,601 285,603 286,604 282,608 280,608 280,610 279,611 279,614 278,615 277,615 277,616 276,617 274,617 273,618 272,617 272,620 271,621 270,621 268,623 266,623 266,624 265,625 264,625 264,626 263,627 262,626 263,627 262,628 260,628 257,631 256,631 255,632 254,631 255,632 254,633 250,633 249,634 248,633 248,634 249,635 248,636 247,636 246,635 246,634 243,637 241,635 242,636 242,638 241,639 240,638 237,638 236,637 237,636 235,638 234,637 235,638 234,639 232,639 230,641 229,641 228,642 227,642 226,643 225,642 223,642 221,644 220,644 219,643 218,644 217,644 215,646 214,646 213,645 211,647 210,647 209,648 208,648 207,647 207,646 206,647 205,646 204,646 204,647 203,648 202,647 201,648 200,648 199,647 199,646 197,648 195,648 194,649 193,649 192,648 193,647 192,648 193,649 192,650 188,650 187,651 186,650 185,650 185,651 184,652 181,649 180,650 179,649 178,649 177,650 175,650 174,649 173,650 172,650 171,649 170,649 169,648 169,647 169,648 168,649 168,650 167,651 166,651 165,650 165,649 164,650 162,650 161,649 160,649 159,650 158,649 150,649 149,650 148,649 148,648 147,647 142,647 141,646 140,646 138,648 137,647 136,647 135,646 134,647 133,647 132,646 133,645 132,645 131,646 130,645 125,645 124,644 123,645 122,644 122,643 121,644 120,644 119,643 119,642 116,642 115,641 114,642 113,641 111,641 110,640 109,641 108,640 107,641 106,640 106,639 105,639 103,637 101,637 100,638 99,637 99,636 99,637 98,638 97,637 97,636 96,635 90,635 89,634 89,633 88,632 87,632 86,633 85,633 84,632 85,631 84,630 81,630 80,629 79,629 78,628 76,628 75,627 76,626 75,626 74,627 73,626 73,625 72,625 71,626 69,624 68,624 65,621 64,622 62,620 60,620 59,619 59,617 56,617 54,615 52,615 51,614 52,613 53,613 52,613 51,614 49,612 49,611 47,613 45,611 46,610 47,610 44,610 41,607 40,608 39,608 37,606 36,607 35,606 35,604 34,604 35,605 34,606 32,606 31,605 32,604 31,603 30,603 29,602 30,601 29,602 27,600 26,601 25,601 23,599 23,598 23,599 22,600 21,600 20,599 17,599 16,598 18,596 17,596 17,597 16,598 15,598 14,599 13,598 13,597 12,596 9,596 8,595 7,596 8,597 7,598 6,598 5,597 5,596 2,596 0,594 1,595 1,596 0,597 0,1023 1023,1023 1023,0" /></svg>