<svg viewBox="0 0 512 512" xmlns="http://www.w3.org/2000/svg"><path d="m213.35 352.22c-1.35.31-.38-1.19-.36-2.1.38-27.81.62-55.53.73-83.38.04-9.07 1.75-25.81-2.66-33.8-3.01-5.44-5.92-1.09-8.01 2.39-3.11 5.18-4.1 11.2-8.33 15.87-10.51 11.58-32.03 10-29.34 31.25 1.11 8.75 3.69 17.25 4.17 26.18 1.42 26.49-4.95 52.54-5.18 78.95 14.16 6.67 30.17 8.79 45.53 4.97-1.53 1.38-4.17 1.99-6.15 2.49-12.73 3.25-26.62 2.02-38.78-2.73l-.74.48c.75 35.38 14.32 77.54 49.89 91.56.08.75-.74.23-1.15.19-31.22-3.33-48.12-34.8-53.29-62.73-7.66-41.39 7.98-83.87-4.25-124.43-2.56-8.5-6.12-18.72-13.81-23.83-11.46-7.61-29.02-3.25-37.78-15.63l4.62 2.68c16.71 7.25 40.41-2.83 55.05-11.4 22.78-13.33 59.06-45.69 56.76-74.64-.16-2.02-1.06-3.92-.97-5.94 7.53 12.46-1.67 25.75-2.51 38.59-.71 10.92 1.85 19.2 3.04 29.64 2.75 24.2 1.17 53.17-1.11 77.54-1.19 12.69-3.06 25.33-5.38 37.84z"/><path d="m127.28 258.89c-.46.89-2.67 1.06-3.65 1.14-20.52 1.66-27.56-10.89-20.46-29.29 12.07-31.26 59.76-68.6 93.47-70.57 12.79-.75 21.99 5.16 20.45 18.9-.26 2.29-2.35 10.05-3.54 11.83-.76 1.14-1.29-1.78-1.58-2.27-3.67-6.37-13.38-5.18-19.45-3.77-22.95 5.36-61.47 35.78-69.09 58.45-1.88 5.58-2.65 12.9 3.85 15.57z"/><path d="m330.92 60.69c.09.69-.83.35-1.24.28-12.58-2-26.84-14.02-37.44-20.57-5.9-3.65-11.78-5.54-14.08 3.06-2.64 9.89-.67 27.49-.62 38.14.49 110.61.34 221.25.38 331.9-1.09 17.58-2.16 36.03-12.38 51-6.44 9.43-16.72 15.73-28.36 15.62l6.26-3.14c25.18-16.13 26.39-47.36 27.15-74.26 1.78-63.15.61-126.88.77-190.13.12-45.39.67-90.91.42-136.35-.05-9.84-1.11-20.09-.42-29.96.66-9.37 5.88-15.25 15.79-13.44 6.09 1.11 18.84 12.44 24.68 16.43 6.12 4.18 12.49 8.09 19.1 11.44z"/><path d="m290.2 147.68c.2-.66 1.69-.87 2.13-.21.28.42.42 3.79.82 4.94 1.07 3.06 3.94 4.09 6.89 4.64l70.49.21c.55.38.6 2.18-.03 2.71l-71.84 48.21h60.51c.54 0 2.97-.71 3.64-.97 4-1.52 4.99-4.58 5-8.64h2.31v21.7l-2.3.58c.97-11.15-9.35-9.64-17.08-10.39-16.43 1.15-34.87-1.5-51.07.07-2.43.23-5.38 1.07-6.42 3.57-.49 1.18-.55 4.31-.91 4.85-.51.76-2.13.29-2.13-.21v-18.24l61.09-40.33h-49.37c-.3 0-2.72.51-3.2.64-5.02 1.44-6.31 5.21-5.83 10.11l-2.69-.58v-22.66z"/><path d="m290.58 296.91c2.55-.58 2.58 2.11 3.91 3.97 2.27 3.16 6.35 5.08 9.79 6.73 20.2 9.71 42.2 17.16 62.64 26.49 1.67.76 4.5 1.34 3.39 3.53l-71.75 29.68c-2.36 1.23-3.63 2.37-4.86 4.74-.88 1.68-.48 3.68-3.12 1.87v-27.85l2.14.36c-.13 4.87 2.67 8.92 7.96 8l53.68-22.2c-.03-.54-.58-.59-.95-.78-6.34-3.21-14.63-6.16-21.35-9-8.87-3.74-21.98-10.32-30.82-12.6-2.54-.65-4.89-1.33-6.98.91-.32.34-1.38 2.16-1.38 2.46v5.57h-2.31v-21.89z"/><path d="m370.11 251.01-2.3.58c.06-4.02-.44-8.29-5.54-7.65l-22.03 8.9c-.42.37-.46 1.44-.5 2-.64 8.71.47 18.25.07 27.04 5.2 1.61 10 4.42 15.12 6.21 9 3.14 12.68 1.77 12.88-8.46l1.94.17.19 21.36c-2.77 1.48-2.44-1.16-3.36-2.83-1.45-2.66-4.1-4.24-6.71-5.58-21.55-9.67-45.17-16.96-66.48-26.87-1.96-.91-5.04-1.92-1.76-3.81 22.47-10.17 47.28-17.88 69.39-28.58 1.92-.93 3.94-1.82 5.24-3.6 1.42-1.94 1.3-6.36 3.84-4.22v25.35zm-32.27 3.27-32.66 13.25 32.66 13.25z"/><path d="m290.58 378.33h2.31c-.23 4.69.45 7.86 5.62 8.4 19.53-.8 40.12 1.22 59.52.06 6.45-.39 10.41-1.8 9.78-9.24l2.14.36c.19.28.15.65.19.97.6 4.85.59 20.14 0 25-.2 1.64-.82 1.35-2.32 1.33.55-6.51-2.85-8.04-8.65-8.45-17.78-1.25-37.63.53-55.73.4-1.21 0-2.25-.44-3.44-.44-5.25 0-7.75 3.4-7.11 8.49l-2.31-.58v-26.31z"/><path d="m356.97 44.64c4.36 5.25 9.63 10.15 15.1 14.28 2.75 2.08 5.89 3.74 8.41 5.99-19 2.58-39.34-.45-54.17-13.25 6.25-.2 11.66-3.78 14.82-9.05 5.08 1.99 10.47 2.01 15.83 2.02z"/></svg>